<mxfile host="app.diagrams.net" agent="Mozilla/5.0 (Windows NT 10.0; Win64; x64) AppleWebKit/537.36 (KHTML, like Gecko) Chrome/140.0.0.0 Safari/537.36" version="28.2.5">
  <diagram name="PÃ¡gina-1" id="Rv_V2HUYhjSeBr1wlQyP">
    <mxGraphModel dx="1453" dy="1818" grid="1" gridSize="10" guides="1" tooltips="1" connect="1" arrows="1" fold="1" page="1" pageScale="1" pageWidth="850" pageHeight="1100" math="0" shadow="0">
      <root>
        <mxCell id="0" />
        <mxCell id="1" parent="0" />
        <mxCell id="B9zfJr58RAGMp5akFG31-47" value="" style="edgeStyle=orthogonalEdgeStyle;rounded=0;orthogonalLoop=1;jettySize=auto;html=1;entryX=0.5;entryY=0;entryDx=0;entryDy=0;" edge="1" parent="1" source="B9zfJr58RAGMp5akFG31-2" target="B9zfJr58RAGMp5akFG31-37">
          <mxGeometry relative="1" as="geometry" />
        </mxCell>
        <mxCell id="B9zfJr58RAGMp5akFG31-59" value="" style="edgeStyle=orthogonalEdgeStyle;rounded=0;orthogonalLoop=1;jettySize=auto;html=1;" edge="1" parent="1" source="B9zfJr58RAGMp5akFG31-2">
          <mxGeometry relative="1" as="geometry">
            <mxPoint x="140" as="targetPoint" />
          </mxGeometry>
        </mxCell>
        <mxCell id="B9zfJr58RAGMp5akFG31-2" value="company" style="swimlane;whiteSpace=wrap;html=1;" vertex="1" parent="1">
          <mxGeometry x="40" y="40" width="200" height="200" as="geometry" />
        </mxCell>
        <mxCell id="B9zfJr58RAGMp5akFG31-4" value="idCompany" style="text;html=1;align=left;verticalAlign=middle;whiteSpace=wrap;rounded=0;" vertex="1" parent="B9zfJr58RAGMp5akFG31-2">
          <mxGeometry y="30" width="200" height="20" as="geometry" />
        </mxCell>
        <mxCell id="B9zfJr58RAGMp5akFG31-5" value="name" style="text;html=1;align=left;verticalAlign=middle;whiteSpace=wrap;rounded=0;" vertex="1" parent="B9zfJr58RAGMp5akFG31-2">
          <mxGeometry y="50" width="200" height="20" as="geometry" />
        </mxCell>
        <mxCell id="B9zfJr58RAGMp5akFG31-10" value="idAddress" style="text;html=1;align=left;verticalAlign=middle;whiteSpace=wrap;rounded=0;" vertex="1" parent="B9zfJr58RAGMp5akFG31-2">
          <mxGeometry y="70" width="200" height="20" as="geometry" />
        </mxCell>
        <mxCell id="B9zfJr58RAGMp5akFG31-34" value="phone" style="text;html=1;align=left;verticalAlign=middle;whiteSpace=wrap;rounded=0;" vertex="1" parent="B9zfJr58RAGMp5akFG31-2">
          <mxGeometry y="90" width="200" height="20" as="geometry" />
        </mxCell>
        <mxCell id="B9zfJr58RAGMp5akFG31-35" value="email" style="text;html=1;align=left;verticalAlign=middle;whiteSpace=wrap;rounded=0;" vertex="1" parent="B9zfJr58RAGMp5akFG31-2">
          <mxGeometry y="110" width="200" height="20" as="geometry" />
        </mxCell>
        <mxCell id="B9zfJr58RAGMp5akFG31-36" value="curp" style="text;html=1;align=left;verticalAlign=middle;whiteSpace=wrap;rounded=0;" vertex="1" parent="B9zfJr58RAGMp5akFG31-2">
          <mxGeometry y="130" width="200" height="20" as="geometry" />
        </mxCell>
        <mxCell id="B9zfJr58RAGMp5akFG31-7" value="address" style="swimlane;whiteSpace=wrap;html=1;startSize=23;" vertex="1" parent="1">
          <mxGeometry x="280" y="40" width="200" height="200" as="geometry" />
        </mxCell>
        <mxCell id="B9zfJr58RAGMp5akFG31-8" value="idAddress" style="text;html=1;align=left;verticalAlign=middle;whiteSpace=wrap;rounded=0;" vertex="1" parent="B9zfJr58RAGMp5akFG31-7">
          <mxGeometry y="30" width="200" height="20" as="geometry" />
        </mxCell>
        <mxCell id="B9zfJr58RAGMp5akFG31-11" value="street" style="text;html=1;align=left;verticalAlign=middle;whiteSpace=wrap;rounded=0;" vertex="1" parent="B9zfJr58RAGMp5akFG31-7">
          <mxGeometry y="50" width="200" height="20" as="geometry" />
        </mxCell>
        <mxCell id="B9zfJr58RAGMp5akFG31-12" value="internal Number" style="text;html=1;align=left;verticalAlign=middle;whiteSpace=wrap;rounded=0;" vertex="1" parent="B9zfJr58RAGMp5akFG31-7">
          <mxGeometry y="70" width="200" height="20" as="geometry" />
        </mxCell>
        <mxCell id="B9zfJr58RAGMp5akFG31-14" style="edgeStyle=orthogonalEdgeStyle;rounded=0;orthogonalLoop=1;jettySize=auto;html=1;exitX=0;exitY=0.25;exitDx=0;exitDy=0;" edge="1" parent="B9zfJr58RAGMp5akFG31-7" source="B9zfJr58RAGMp5akFG31-13">
          <mxGeometry relative="1" as="geometry">
            <mxPoint x="-40" y="95" as="targetPoint" />
          </mxGeometry>
        </mxCell>
        <mxCell id="B9zfJr58RAGMp5akFG31-13" value="external Number" style="text;html=1;align=left;verticalAlign=middle;whiteSpace=wrap;rounded=0;" vertex="1" parent="B9zfJr58RAGMp5akFG31-7">
          <mxGeometry y="90" width="200" height="20" as="geometry" />
        </mxCell>
        <mxCell id="B9zfJr58RAGMp5akFG31-15" value="suburb" style="text;html=1;align=left;verticalAlign=middle;whiteSpace=wrap;rounded=0;" vertex="1" parent="B9zfJr58RAGMp5akFG31-7">
          <mxGeometry y="110" width="200" height="20" as="geometry" />
        </mxCell>
        <mxCell id="B9zfJr58RAGMp5akFG31-23" value="enabled" style="text;html=1;align=left;verticalAlign=middle;whiteSpace=wrap;rounded=0;" vertex="1" parent="B9zfJr58RAGMp5akFG31-7">
          <mxGeometry y="130" width="200" height="20" as="geometry" />
        </mxCell>
        <mxCell id="B9zfJr58RAGMp5akFG31-24" value="idCity" style="text;html=1;align=left;verticalAlign=middle;whiteSpace=wrap;rounded=0;" vertex="1" parent="B9zfJr58RAGMp5akFG31-7">
          <mxGeometry y="150" width="200" height="20" as="geometry" />
        </mxCell>
        <mxCell id="B9zfJr58RAGMp5akFG31-32" value="" style="edgeStyle=orthogonalEdgeStyle;rounded=0;orthogonalLoop=1;jettySize=auto;html=1;entryX=1;entryY=0.5;entryDx=0;entryDy=0;" edge="1" parent="1" source="B9zfJr58RAGMp5akFG31-16" target="B9zfJr58RAGMp5akFG31-25">
          <mxGeometry relative="1" as="geometry" />
        </mxCell>
        <mxCell id="B9zfJr58RAGMp5akFG31-16" value="city" style="swimlane;whiteSpace=wrap;html=1;startSize=23;" vertex="1" parent="1">
          <mxGeometry x="760" y="40" width="200" height="200" as="geometry" />
        </mxCell>
        <mxCell id="B9zfJr58RAGMp5akFG31-17" value="idCity" style="text;html=1;align=left;verticalAlign=middle;whiteSpace=wrap;rounded=0;" vertex="1" parent="B9zfJr58RAGMp5akFG31-16">
          <mxGeometry y="30" width="200" height="20" as="geometry" />
        </mxCell>
        <mxCell id="B9zfJr58RAGMp5akFG31-18" value="name" style="text;html=1;align=left;verticalAlign=middle;whiteSpace=wrap;rounded=0;" vertex="1" parent="B9zfJr58RAGMp5akFG31-16">
          <mxGeometry y="50" width="200" height="20" as="geometry" />
        </mxCell>
        <mxCell id="B9zfJr58RAGMp5akFG31-33" value="" style="edgeStyle=orthogonalEdgeStyle;rounded=0;orthogonalLoop=1;jettySize=auto;html=1;entryX=1;entryY=0.5;entryDx=0;entryDy=0;" edge="1" parent="1" source="B9zfJr58RAGMp5akFG31-25" target="B9zfJr58RAGMp5akFG31-13">
          <mxGeometry relative="1" as="geometry" />
        </mxCell>
        <mxCell id="B9zfJr58RAGMp5akFG31-25" value="state" style="swimlane;whiteSpace=wrap;html=1;startSize=23;" vertex="1" parent="1">
          <mxGeometry x="520" y="40" width="200" height="200" as="geometry" />
        </mxCell>
        <mxCell id="B9zfJr58RAGMp5akFG31-26" value="idState" style="text;html=1;align=left;verticalAlign=middle;whiteSpace=wrap;rounded=0;" vertex="1" parent="B9zfJr58RAGMp5akFG31-25">
          <mxGeometry y="30" width="200" height="20" as="geometry" />
        </mxCell>
        <mxCell id="B9zfJr58RAGMp5akFG31-27" value="name" style="text;html=1;align=left;verticalAlign=middle;whiteSpace=wrap;rounded=0;" vertex="1" parent="B9zfJr58RAGMp5akFG31-25">
          <mxGeometry y="50" width="200" height="20" as="geometry" />
        </mxCell>
        <mxCell id="B9zfJr58RAGMp5akFG31-30" value="idCity" style="text;html=1;align=left;verticalAlign=middle;whiteSpace=wrap;rounded=0;" vertex="1" parent="B9zfJr58RAGMp5akFG31-25">
          <mxGeometry y="70" width="200" height="20" as="geometry" />
        </mxCell>
        <mxCell id="B9zfJr58RAGMp5akFG31-37" value="user" style="swimlane;whiteSpace=wrap;html=1;" vertex="1" parent="1">
          <mxGeometry x="40" y="280" width="200" height="200" as="geometry" />
        </mxCell>
        <mxCell id="B9zfJr58RAGMp5akFG31-38" value="idUser" style="text;html=1;align=left;verticalAlign=middle;whiteSpace=wrap;rounded=0;" vertex="1" parent="B9zfJr58RAGMp5akFG31-37">
          <mxGeometry y="30" width="200" height="20" as="geometry" />
        </mxCell>
        <mxCell id="B9zfJr58RAGMp5akFG31-39" value="name" style="text;html=1;align=left;verticalAlign=middle;whiteSpace=wrap;rounded=0;" vertex="1" parent="B9zfJr58RAGMp5akFG31-37">
          <mxGeometry y="50" width="200" height="20" as="geometry" />
        </mxCell>
        <mxCell id="B9zfJr58RAGMp5akFG31-40" value="idCompany" style="text;html=1;align=left;verticalAlign=middle;whiteSpace=wrap;rounded=0;" vertex="1" parent="B9zfJr58RAGMp5akFG31-37">
          <mxGeometry y="70" width="200" height="20" as="geometry" />
        </mxCell>
        <mxCell id="B9zfJr58RAGMp5akFG31-41" value="phone" style="text;html=1;align=left;verticalAlign=middle;whiteSpace=wrap;rounded=0;" vertex="1" parent="B9zfJr58RAGMp5akFG31-37">
          <mxGeometry y="90" width="200" height="20" as="geometry" />
        </mxCell>
        <mxCell id="B9zfJr58RAGMp5akFG31-42" value="email" style="text;html=1;align=left;verticalAlign=middle;whiteSpace=wrap;rounded=0;" vertex="1" parent="B9zfJr58RAGMp5akFG31-37">
          <mxGeometry y="110" width="200" height="20" as="geometry" />
        </mxCell>
        <mxCell id="B9zfJr58RAGMp5akFG31-44" value="password" style="text;html=1;align=left;verticalAlign=middle;whiteSpace=wrap;rounded=0;" vertex="1" parent="B9zfJr58RAGMp5akFG31-37">
          <mxGeometry y="130" width="200" height="20" as="geometry" />
        </mxCell>
        <mxCell id="B9zfJr58RAGMp5akFG31-45" value="first last name" style="text;html=1;align=left;verticalAlign=middle;whiteSpace=wrap;rounded=0;" vertex="1" parent="B9zfJr58RAGMp5akFG31-37">
          <mxGeometry y="150" width="200" height="20" as="geometry" />
        </mxCell>
        <mxCell id="B9zfJr58RAGMp5akFG31-46" value="second last name" style="text;html=1;align=left;verticalAlign=middle;whiteSpace=wrap;rounded=0;" vertex="1" parent="B9zfJr58RAGMp5akFG31-37">
          <mxGeometry y="170" width="200" height="20" as="geometry" />
        </mxCell>
        <mxCell id="B9zfJr58RAGMp5akFG31-48" value="documents" style="swimlane;whiteSpace=wrap;html=1;" vertex="1" parent="1">
          <mxGeometry x="40" y="-200" width="200" height="200" as="geometry" />
        </mxCell>
        <mxCell id="B9zfJr58RAGMp5akFG31-49" value="idDocument" style="text;html=1;align=left;verticalAlign=middle;whiteSpace=wrap;rounded=0;" vertex="1" parent="B9zfJr58RAGMp5akFG31-48">
          <mxGeometry y="30" width="200" height="20" as="geometry" />
        </mxCell>
        <mxCell id="B9zfJr58RAGMp5akFG31-50" value="name" style="text;html=1;align=left;verticalAlign=middle;whiteSpace=wrap;rounded=0;" vertex="1" parent="B9zfJr58RAGMp5akFG31-48">
          <mxGeometry y="50" width="200" height="20" as="geometry" />
        </mxCell>
        <mxCell id="B9zfJr58RAGMp5akFG31-51" value="idCompany" style="text;html=1;align=left;verticalAlign=middle;whiteSpace=wrap;rounded=0;" vertex="1" parent="B9zfJr58RAGMp5akFG31-48">
          <mxGeometry y="70" width="200" height="20" as="geometry" />
        </mxCell>
        <mxCell id="B9zfJr58RAGMp5akFG31-52" value="path" style="text;html=1;align=left;verticalAlign=middle;whiteSpace=wrap;rounded=0;" vertex="1" parent="B9zfJr58RAGMp5akFG31-48">
          <mxGeometry y="90" width="200" height="20" as="geometry" />
        </mxCell>
        <mxCell id="B9zfJr58RAGMp5akFG31-53" value="server" style="text;html=1;align=left;verticalAlign=middle;whiteSpace=wrap;rounded=0;" vertex="1" parent="B9zfJr58RAGMp5akFG31-48">
          <mxGeometry y="110" width="200" height="20" as="geometry" />
        </mxCell>
        <mxCell id="B9zfJr58RAGMp5akFG31-54" value="idType" style="text;html=1;align=left;verticalAlign=middle;whiteSpace=wrap;rounded=0;" vertex="1" parent="B9zfJr58RAGMp5akFG31-48">
          <mxGeometry y="130" width="200" height="20" as="geometry" />
        </mxCell>
        <mxCell id="B9zfJr58RAGMp5akFG31-55" value="url" style="text;html=1;align=left;verticalAlign=middle;whiteSpace=wrap;rounded=0;" vertex="1" parent="B9zfJr58RAGMp5akFG31-48">
          <mxGeometry y="150" width="200" height="20" as="geometry" />
        </mxCell>
        <mxCell id="B9zfJr58RAGMp5akFG31-56" value="enabled" style="text;html=1;align=left;verticalAlign=middle;whiteSpace=wrap;rounded=0;" vertex="1" parent="B9zfJr58RAGMp5akFG31-48">
          <mxGeometry y="170" width="200" height="20" as="geometry" />
        </mxCell>
        <mxCell id="B9zfJr58RAGMp5akFG31-73" value="" style="edgeStyle=orthogonalEdgeStyle;rounded=0;orthogonalLoop=1;jettySize=auto;html=1;entryX=1;entryY=0.5;entryDx=0;entryDy=0;" edge="1" parent="1" source="B9zfJr58RAGMp5akFG31-70" target="B9zfJr58RAGMp5akFG31-52">
          <mxGeometry relative="1" as="geometry" />
        </mxCell>
        <mxCell id="B9zfJr58RAGMp5akFG31-70" value="document type" style="swimlane;whiteSpace=wrap;html=1;startSize=23;" vertex="1" parent="1">
          <mxGeometry x="280" y="-200" width="200" height="200" as="geometry" />
        </mxCell>
        <mxCell id="B9zfJr58RAGMp5akFG31-71" value="id Document type" style="text;html=1;align=left;verticalAlign=middle;whiteSpace=wrap;rounded=0;" vertex="1" parent="B9zfJr58RAGMp5akFG31-70">
          <mxGeometry y="30" width="200" height="20" as="geometry" />
        </mxCell>
        <mxCell id="B9zfJr58RAGMp5akFG31-72" value="name" style="text;html=1;align=left;verticalAlign=middle;whiteSpace=wrap;rounded=0;" vertex="1" parent="B9zfJr58RAGMp5akFG31-70">
          <mxGeometry y="50" width="200" height="20" as="geometry" />
        </mxCell>
        <mxCell id="B9zfJr58RAGMp5akFG31-74" value="enabled" style="text;html=1;align=left;verticalAlign=middle;whiteSpace=wrap;rounded=0;" vertex="1" parent="B9zfJr58RAGMp5akFG31-70">
          <mxGeometry y="70" width="200" height="20" as="geometry" />
        </mxCell>
      </root>
    </mxGraphModel>
  </diagram>
</mxfile>
